<svg xmlns="http://www.w3.org/2000/svg" xmlns:xlink="http://www.w3.org/1999/xlink" width="100%" height="100%" viewBox="0 0 423 145" version="1.1" xml:space="preserve" style="fill-rule:evenodd;clip-rule:evenodd;stroke-linejoin:round;stroke-miterlimit:1.41421;"><g><g><g id="XMLID_86_"><path id="XMLID_116_" d="M91.1,69c2.1,0 3.3,-0.1 6,-0.7l0.7,4.5c-2.1,0.6 -4.3,0.8 -6.6,0.8c-10.3,0 -13.2,-6.3 -13.2,-13.8c0.1,-7.3 4.5,-13.4 13.1,-13.4c2.3,0 4.2,0.3 6.6,0.9l-0.9,4.4c-2.5,-0.6 -4,-0.7 -5.6,-0.7c-5.4,0.1 -8.1,4.1 -8.2,8.8c0.1,4.6 1.8,9.2 8.1,9.2Z" style="fill:#fff;fill-rule:nonzero;"/><path id="XMLID_113_" d="M112,46.4c8.4,0 12.1,6.3 12.1,13.6c0,7.1 -3.2,13.5 -12.2,13.6c-8.8,-0.1 -12.1,-6.4 -12.1,-13.6c0,-7.3 3.8,-13.5 12.2,-13.6ZM112,69.1c5.4,0 7.1,-4.4 7.1,-9.1c0,-4.3 -1.9,-9.1 -7.1,-9.1c-5.1,0 -7.1,4.8 -7.1,9.1c-0.1,4.9 2.1,9.1 7.1,9.1Z" style="fill:#fff;fill-rule:nonzero;"/><path id="XMLID_111_" d="M158.8,73.1l0,-16.8c0,-4.2 -1.6,-5.4 -4.2,-5.4c-1.8,0 -3.9,1 -5.7,2.6c0.1,0.6 0.1,1.7 0.1,2l0,17.6l-5.2,0l0,-17c0,-4.2 -1.3,-5.3 -3.9,-5.3c-1.7,0 -4,1.1 -6,2.6l0,19.6l-5.2,0l0,-26.1l5.2,0l0,2.2c1.6,-1.3 4.1,-2.7 6.8,-2.7c3.6,0 5.7,1.2 6.9,3.2c2.1,-2 5.3,-3.1 7.7,-3.2c8.5,-0.1 8.7,6.7 8.7,9.6l0,17.1l-5.2,0Z" style="fill:#fff;fill-rule:nonzero;"/><path id="XMLID_109_" d="M199.8,73.1l0,-16.8c0,-4.2 -1.6,-5.4 -4.2,-5.4c-1.8,0 -3.9,1 -5.7,2.6c0.1,0.6 0.1,1.7 0.1,2l0,17.6l-5.2,0l0,-17c0,-4.2 -1.3,-5.3 -3.9,-5.3c-1.7,0 -4,1.1 -6,2.6l0,19.6l-5.2,0l0,-26.1l5.2,0l0,2.2c1.6,-1.3 4.1,-2.7 6.8,-2.7c3.6,0 5.7,1.2 6.9,3.2c2.1,-2 5.3,-3.1 7.7,-3.2c8.5,-0.1 8.7,6.7 8.7,9.6l0,17.1l-5.2,0Z" style="fill:#fff;fill-rule:nonzero;"/><path id="XMLID_106_" d="M229.1,68.3l0.8,4.2c-2.3,0.8 -5.5,1.2 -8.1,1.2c-10.3,0 -12.9,-6.9 -12.9,-13.9c0,-6.9 3.1,-13.4 11.7,-13.4c5.4,0 9.8,3.3 9.9,11.7l0,2.7l-16.5,0c0.1,5.1 2.8,8.2 8,8.2c2.1,0.2 4.3,-0.1 7.1,-0.7ZM214.3,56.9l11.5,0c-0.2,-5.3 -2.8,-6.4 -5.3,-6.4c-3.9,0 -5.7,2.6 -6.2,6.4Z" style="fill:#fff;fill-rule:nonzero;"/><path id="XMLID_104_" d="M249.6,51.7c-1.4,-0.3 -2.5,-0.4 -3.4,-0.4c-3.2,0 -4.9,1.5 -6.1,2.8l0,19l-5.1,0l0,-26.2l5.2,0l0,2.3c1.4,-1.4 3.4,-2.6 6.1,-2.7c1.1,0 2.8,0.1 4.3,0.7l-1,4.5Z" style="fill:#fff;fill-rule:nonzero;"/><path id="XMLID_102_" d="M264.7,69c2.1,0 3.3,-0.1 6,-0.7l0.7,4.5c-2.1,0.6 -4.3,0.8 -6.6,0.8c-10.2,0 -13.1,-6.4 -13.1,-13.8c0.1,-7.3 4.5,-13.4 13.1,-13.4c2.3,0 4.2,0.3 6.6,0.9l-0.9,4.4c-2.5,-0.6 -4,-0.7 -5.6,-0.7c-5.4,0.1 -8.1,4.1 -8.2,8.8c0,4.6 1.7,9.2 8,9.2Z" style="fill:#fff;fill-rule:nonzero;"/><path id="XMLID_99_" d="M293.6,68.3l0.8,4.2c-2.3,0.8 -5.5,1.2 -8.1,1.2c-10.3,0 -12.9,-6.9 -12.9,-13.9c0,-6.9 3.1,-13.4 11.7,-13.4c5.4,0 9.8,3.3 9.9,11.7l0,2.7l-16.5,0c0.1,5.1 2.8,8.2 8,8.2c2.1,0.2 4.2,-0.1 7.1,-0.7ZM278.8,56.9l11.5,0c-0.2,-5.3 -2.8,-6.4 -5.3,-6.4c-4,0 -5.8,2.6 -6.2,6.4Z" style="fill:#fff;fill-rule:nonzero;"/><path id="XMLID_97_" d="M312.6,51.1l-7.1,0l0,12.7c0,2.7 0.3,4.5 3,4.9c1.5,0.1 3,0 4.5,-0.2l0.3,4.5c-1.5,0.3 -3.7,0.3 -4.6,0.3c-6.1,-0.2 -8.4,-3.4 -8.4,-8.2l0,-14l-3.8,0l0,-3.6l3.8,-0.4l0,-6.1l5.1,0l0,5.8l7.1,0l0,4.3l0.1,0Z" style="fill:#fff;fill-rule:nonzero;"/><path id="XMLID_94_" d="M327.6,46.4c8.4,0 12.1,6.3 12.1,13.6c0,7.1 -3.2,13.5 -12.2,13.6c-8.8,-0.1 -12.1,-6.4 -12.1,-13.6c0.1,-7.3 3.8,-13.5 12.2,-13.6ZM327.6,69.1c5.4,0 7.1,-4.4 7.1,-9.1c0,-4.3 -1.9,-9.1 -7.1,-9.1c-5.1,0 -7.1,4.8 -7.1,9.1c-0.1,4.9 2.1,9.1 7.1,9.1Z" style="fill:#fff;fill-rule:nonzero;"/><path id="XMLID_91_" d="M355.5,46.4c8.4,0 12.1,6.3 12.1,13.6c0,7.1 -3.2,13.5 -12.2,13.6c-8.8,-0.1 -12.1,-6.4 -12.1,-13.6c0,-7.3 3.8,-13.5 12.2,-13.6ZM355.5,69.1c5.4,0 7.1,-4.4 7.1,-9.1c0,-4.3 -1.9,-9.1 -7.1,-9.1c-5.1,0 -7.1,4.8 -7.1,9.1c-0.1,4.9 2,9.1 7.1,9.1Z" style="fill:#fff;fill-rule:nonzero;"/><rect id="XMLID_89_" x="371.7" y="37.5" width="5" height="35.6" style="fill:#fff;fill-rule:nonzero;"/><path id="XMLID_87_" d="M381.9,68c2.9,0.7 5.7,1.1 7.4,1.1c2,0 4.1,-0.4 4.3,-2.9c0.1,-2.6 -2.6,-3.4 -5.6,-4.7c-3.5,-1.4 -7.3,-3.4 -7.2,-8.2c0.1,-2.4 1.5,-7.2 9.3,-6.9c2.3,0 5.1,0.4 7.5,1l-0.9,4.3c-2.7,-0.7 -4.8,-0.9 -6.8,-1c-2.2,0 -4,0.7 -4.1,2.8c0,1.8 1.4,2.7 4.8,4.1c3.5,1.4 8.4,3.3 8.2,8.8c-0.1,3.5 -2.4,7.3 -9.5,7.2c-2.2,0 -5.8,-0.3 -8.5,-1.3l1.1,-4.3Z" style="fill:#fff;fill-rule:nonzero;"/></g><path id="XMLID_165_" d="M64.061,71.24l-21.768,-10.145c-0.174,-0.082 -0.361,-0.141 -0.548,-0.187l0,-0.087l0,-6.072c0,-0.602 0.023,-0.611 0.411,-0.79l0.867,-0.401c1.456,-0.676 1.456,-0.676 10.044,-4.694l11.003,-5.149c0.634,-0.297 1.045,-0.945 1.045,-1.649c0,-0.703 -0.411,-1.346 -1.05,-1.648l-21.768,-10.144c-0.79,-0.365 -1.694,-0.365 -2.483,0l-21.764,10.117c-0.635,0.292 -1.045,0.936 -1.05,1.639l0,30.835c0,0.703 0.411,1.347 1.045,1.648l21.796,10.204c0.169,0.082 0.347,0.141 0.525,0.187l0,0.078l0.68,0.013c0.018,0 0.037,0 0.055,0l0.648,0.005l0,-0.082c0.201,-0.046 0.398,-0.114 0.589,-0.201l21.732,-10.172c0.634,-0.297 1.045,-0.945 1.045,-1.648c-0.004,-0.712 -0.415,-1.361 -1.054,-1.657ZM18.383,71.053l0,-27.215l21.458,10.044c0.178,0.082 0.361,0.146 0.552,0.192c0.005,0 0.014,0.004 0.019,0.004c-0.032,0.201 -0.046,0.425 -0.046,0.667l0,6.154c-0.014,0.005 -0.027,0.009 -0.041,0.014c-0.174,0.045 -0.343,0.1 -0.507,0.178l-21.435,9.962ZM18.63,41.637l21.763,-10.117c0.21,-0.096 0.434,-0.146 0.658,-0.146c0.224,0 0.447,0.05 0.657,0.146l21.768,10.145c0.151,0.073 0.251,0.223 0.251,0.392c0,0.165 -0.095,0.32 -0.246,0.393l-11.003,5.15c-8.578,4.017 -8.578,4.017 -10.039,4.693l-0.822,0.384c-0.059,0.022 -0.123,0.036 -0.183,0.05c-0.027,0.004 -0.054,0.018 -0.082,0.023c-0.091,0.013 -0.187,0.022 -0.288,0.022c-0.223,-0.004 -0.438,-0.05 -0.639,-0.146l-21.795,-10.203c-0.037,-0.019 -0.073,-0.041 -0.101,-0.064c-0.091,-0.078 -0.141,-0.197 -0.146,-0.324c0,-0.174 0.096,-0.325 0.247,-0.398ZM18.63,73.249c-0.151,-0.074 -0.247,-0.224 -0.247,-0.393c0,-0.041 0.005,-0.082 0.019,-0.123c0.036,-0.119 0.118,-0.215 0.232,-0.27l21.732,-10.099l0,21.056l-21.736,-10.171ZM63.476,73.28l-21.731,10.172l0,-21.088l21.731,10.131c0.151,0.073 0.251,0.224 0.251,0.393c0,0.164 -0.095,0.319 -0.251,0.392Z" style="fill:#fff;fill-rule:nonzero;"/></g></g></svg>
